<svg width="19" height="18" viewBox="0 0 19 18" fill="none" xmlns="http://www.w3.org/2000/svg">
<path d="M18.8276 6.4787H13.3066C13.2117 6.4787 13.1341 6.55634 13.1341 6.65124V7.68642C13.1341 7.78131 13.2117 7.85895 13.3066 7.85895H18.8276C18.9225 7.85895 19.0001 7.78131 19.0001 7.68642V6.65124C19.0001 6.55634 18.9225 6.4787 18.8276 6.4787ZM15.9377 9.41172H13.3066C13.2117 9.41172 13.1341 9.48936 13.1341 9.58425V10.6194C13.1341 10.7143 13.2117 10.792 13.3066 10.792H15.9377C16.0326 10.792 16.1102 10.7143 16.1102 10.6194V9.58425C16.1102 9.48936 16.0326 9.41172 15.9377 9.41172ZM8.74104 4.54852H7.80722C7.67351 4.54852 7.56567 4.65635 7.56567 4.79007V10.1385C7.56567 10.2161 7.60234 10.2873 7.66488 10.3326L10.8761 12.6747C10.9839 12.7523 11.1349 12.7308 11.2125 12.6229L11.7668 11.866V11.8638C11.8444 11.756 11.8207 11.605 11.7129 11.5274L8.98042 9.5519V4.79007C8.98258 4.65635 8.87259 4.54852 8.74104 4.54852Z" fill="#E9D735"/>
<path d="M15.8038 12.1268H14.5573C14.4365 12.1268 14.3222 12.1894 14.2575 12.2929C13.9836 12.7264 13.6644 13.1275 13.2978 13.4941C12.6659 14.126 11.9305 14.6221 11.1131 14.9671C10.2656 15.3251 9.36625 15.5063 8.4389 15.5063C7.50939 15.5063 6.61008 15.3251 5.76468 14.9671C4.94732 14.6221 4.21191 14.126 3.58002 13.4941C2.94812 12.8623 2.4521 12.1268 2.10704 11.3095C1.74904 10.4641 1.56788 9.56477 1.56788 8.63526C1.56788 7.70576 1.74904 6.8086 2.10704 5.96104C2.4521 5.14368 2.94812 4.40827 3.58002 3.77638C4.21191 3.14449 4.94732 2.64846 5.76468 2.3034C6.61008 1.9454 7.51155 1.76425 8.4389 1.76425C9.3684 1.76425 10.2677 1.9454 11.1131 2.3034C11.9305 2.64846 12.6659 3.14449 13.2978 3.77638C13.6644 4.14301 13.9836 4.54414 14.2575 4.97762C14.3222 5.08114 14.4365 5.14368 14.5573 5.14368H15.8038C15.9526 5.14368 16.0475 4.9884 15.9806 4.85685C14.5745 2.0597 11.7234 0.241666 8.54026 0.205004C3.87979 0.146775 0.00864124 3.96185 1.47337e-05 8.61801C-0.00861178 13.2828 3.77196 17.0677 8.43674 17.0677C11.6609 17.0677 14.5594 15.2432 15.9806 12.4137C16.0475 12.2821 15.9504 12.1268 15.8038 12.1268Z" fill="#E9D735"/>
</svg>
