<svg width="148" height="82" viewBox="0 0 148 82" fill="none" xmlns="http://www.w3.org/2000/svg">
<path d="M26.52 37.0339H34.08V65.5939C34.08 70.2339 32.54 73.7739 29.46 76.2139C26.42 78.6539 22.74 79.8739 18.42 79.8739C15.18 79.8739 12.32 79.2539 9.84 78.0139C7.4 76.7739 5.52 74.9539 4.2 72.5539L10.8 68.7739C12.32 71.5739 14.94 72.9739 18.66 72.9739C21.1 72.9739 23.02 72.3339 24.42 71.0539C25.82 69.7739 26.52 67.9539 26.52 65.5939V62.3539C24.24 65.3939 21.04 66.9139 16.92 66.9139C12.68 66.9139 9.12 65.4339 6.24 62.4739C3.4 59.4739 1.98 55.8339 1.98 51.5539C1.98 47.3139 3.42 43.6939 6.3 40.6939C9.18 37.6939 12.72 36.1939 16.92 36.1939C21.04 36.1939 24.24 37.7139 26.52 40.7539V37.0339ZM12.06 57.4939C13.66 59.0139 15.68 59.7739 18.12 59.7739C20.56 59.7739 22.56 59.0139 24.12 57.4939C25.72 55.9339 26.52 53.9539 26.52 51.5539C26.52 49.1939 25.72 47.2539 24.12 45.7339C22.56 44.1739 20.56 43.3939 18.12 43.3939C15.68 43.3939 13.66 44.1739 12.06 45.7339C10.5 47.2539 9.72 49.1939 9.72 51.5539C9.72 53.9539 10.5 55.9339 12.06 57.4939ZM63.8986 37.0339H71.6386V67.0339H63.8986V63.4939C61.5786 66.4139 58.3186 67.8739 54.1186 67.8739C50.1186 67.8739 46.6786 66.3539 43.7986 63.3139C40.9586 60.2339 39.5386 56.4739 39.5386 52.0339C39.5386 47.5939 40.9586 43.8539 43.7986 40.8139C46.6786 37.7339 50.1186 36.1939 54.1186 36.1939C58.3186 36.1939 61.5786 37.6539 63.8986 40.5739V37.0339ZM49.6186 58.1539C51.1786 59.7139 53.1586 60.4939 55.5586 60.4939C57.9586 60.4939 59.9386 59.7139 61.4986 58.1539C63.0986 56.5539 63.8986 54.5139 63.8986 52.0339C63.8986 49.5539 63.0986 47.5339 61.4986 45.9739C59.9386 44.3739 57.9586 43.5739 55.5586 43.5739C53.1586 43.5739 51.1786 44.3739 49.6186 45.9739C48.0586 47.5339 47.2786 49.5539 47.2786 52.0339C47.2786 54.5139 48.0586 56.5539 49.6186 58.1539ZM95.3372 36.1939C98.6172 36.1939 101.317 37.2939 103.437 39.4939C105.597 41.6939 106.677 44.7339 106.677 48.6139V67.0339H98.9372V49.5739C98.9372 47.5739 98.3972 46.0539 97.3172 45.0139C96.2372 43.9339 94.7972 43.3939 92.9972 43.3939C90.9972 43.3939 89.3972 44.0139 88.1972 45.2539C86.9972 46.4939 86.3972 48.3539 86.3972 50.8339V67.0339H78.6572V37.0339H86.3972V40.3939C88.2772 37.5939 91.2572 36.1939 95.3372 36.1939ZM136.266 37.0339H143.826V65.5939C143.826 70.2339 142.286 73.7739 139.206 76.2139C136.166 78.6539 132.486 79.8739 128.166 79.8739C124.926 79.8739 122.066 79.2539 119.586 78.0139C117.146 76.7739 115.266 74.9539 113.946 72.5539L120.546 68.7739C122.066 71.5739 124.686 72.9739 128.406 72.9739C130.846 72.9739 132.766 72.3339 134.166 71.0539C135.566 69.7739 136.266 67.9539 136.266 65.5939V62.3539C133.986 65.3939 130.786 66.9139 126.666 66.9139C122.426 66.9139 118.866 65.4339 115.986 62.4739C113.146 59.4739 111.726 55.8339 111.726 51.5539C111.726 47.3139 113.166 43.6939 116.046 40.6939C118.926 37.6939 122.466 36.1939 126.666 36.1939C130.786 36.1939 133.986 37.7139 136.266 40.7539V37.0339ZM121.806 57.4939C123.406 59.0139 125.426 59.7739 127.866 59.7739C130.306 59.7739 132.306 59.0139 133.866 57.4939C135.466 55.9339 136.266 53.9539 136.266 51.5539C136.266 49.1939 135.466 47.2539 133.866 45.7339C132.306 44.1739 130.306 43.3939 127.866 43.3939C125.426 43.3939 123.406 44.1739 121.806 45.7339C120.246 47.2539 119.466 49.1939 119.466 51.5539C119.466 53.9539 120.246 55.9339 121.806 57.4939Z" fill="black"/>
<rect x="49.4492" y="15.5124" width="31.0248" height="9.42715" transform="rotate(-30 49.4492 15.5124)" fill="#8C50FF"/>
</svg>
