<svg width="23" height="22" viewBox="0 0 23 22" fill="none" xmlns="http://www.w3.org/2000/svg">
<path d="M11.6808 7.24576C9.68831 7.24576 8.06225 8.87183 8.06225 10.8644C8.06225 12.8569 9.68831 14.483 11.6808 14.483C13.6734 14.483 15.2995 12.8569 15.2995 10.8644C15.2995 8.87183 13.6734 7.24576 11.6808 7.24576ZM22.5339 10.8644C22.5339 9.36589 22.5475 7.88099 22.4634 6.38523C22.3792 4.64786 21.9829 3.10595 20.7124 1.83551C19.4393 0.562346 17.9001 0.168725 16.1627 0.0845714C14.6642 0.000417856 13.1793 0.013991 11.6836 0.013991C10.1851 0.013991 8.70019 0.000417856 7.20443 0.0845714C5.46706 0.168725 3.92515 0.565061 2.65471 1.83551C1.38154 3.10867 0.987924 4.64786 0.90377 6.38523C0.819616 7.8837 0.83319 9.3686 0.83319 10.8644C0.83319 12.3601 0.819616 13.8477 0.90377 15.3435C0.987924 17.0809 1.38426 18.6228 2.65471 19.8932C3.92787 21.1664 5.46706 21.56 7.20443 21.6442C8.7029 21.7283 10.1878 21.7147 11.6836 21.7147C13.182 21.7147 14.6669 21.7283 16.1627 21.6442C17.9001 21.56 19.442 21.1637 20.7124 19.8932C21.9856 18.6201 22.3792 17.0809 22.4634 15.3435C22.5502 13.8477 22.5339 12.3628 22.5339 10.8644ZM11.6808 16.4321C8.59974 16.4321 6.11314 13.9455 6.11314 10.8644C6.11314 7.78326 8.59974 5.29666 11.6808 5.29666C14.762 5.29666 17.2486 7.78326 17.2486 10.8644C17.2486 13.9455 14.762 16.4321 11.6808 16.4321ZM17.4766 6.36894C16.7572 6.36894 16.1763 5.78801 16.1763 5.06863C16.1763 4.34925 16.7572 3.76832 17.4766 3.76832C18.196 3.76832 18.7769 4.34925 18.7769 5.06863C18.7771 5.23945 18.7436 5.40863 18.6783 5.56649C18.6131 5.72435 18.5173 5.86778 18.3965 5.98857C18.2757 6.10935 18.1323 6.20513 17.9744 6.2704C17.8166 6.33567 17.6474 6.36915 17.4766 6.36894Z" fill="#E9D735" fill-opacity="0.7"/>
</svg>
