<svg width="29" height="16" viewBox="0 0 29 16" fill="none" xmlns="http://www.w3.org/2000/svg">
<path d="M27.8896 14.2056C27.8562 14.1337 27.8251 14.074 27.7962 14.0262C27.3178 13.1646 26.4037 12.1072 25.0544 10.8535L25.0259 10.8247L25.0116 10.8107L24.9972 10.7962H24.9827C24.3703 10.2124 23.9825 9.81992 23.8201 9.61895C23.5229 9.23613 23.4563 8.84863 23.6187 8.456C23.7335 8.15935 24.1645 7.53287 24.9107 6.57571C25.3033 6.06844 25.6141 5.66188 25.8437 5.35558C27.4994 3.15436 28.2173 1.74776 27.9971 1.13521L27.9115 0.99206C27.8541 0.905882 27.7057 0.827044 27.4668 0.755145C27.2272 0.683397 26.9211 0.671531 26.5478 0.719347L22.4136 0.747905C22.3466 0.724173 22.251 0.726385 22.1264 0.755145C22.002 0.783904 21.9397 0.798335 21.9397 0.798335L21.8678 0.834284L21.8107 0.877474C21.7628 0.906033 21.7102 0.956262 21.6527 1.02806C21.5955 1.09961 21.5477 1.18357 21.5095 1.27925C21.0594 2.43723 20.5476 3.51386 19.9733 4.50909C19.6192 5.10253 19.294 5.61683 18.997 6.0523C18.7004 6.48762 18.4516 6.80835 18.2507 7.01394C18.0496 7.21973 17.8681 7.3846 17.7051 7.50914C17.5424 7.63373 17.4181 7.68637 17.3321 7.66712C17.2459 7.64786 17.1647 7.62875 17.0878 7.60965C16.9539 7.52347 16.8462 7.40627 16.765 7.25795C16.6834 7.10962 16.6285 6.92294 16.5998 6.69804C16.5713 6.47299 16.5544 6.27941 16.5496 6.11666C16.5451 5.95411 16.5471 5.72418 16.5568 5.42753C16.5668 5.13074 16.5713 4.92992 16.5713 4.82464C16.5713 4.46092 16.5784 4.06618 16.5926 3.64031C16.6071 3.21445 16.6188 2.87702 16.6286 2.62844C16.6383 2.37961 16.6429 2.11635 16.6429 1.83881C16.6429 1.56127 16.626 1.34361 16.5926 1.18563C16.5596 1.02786 16.509 0.874709 16.4423 0.726234C16.3751 0.577911 16.2769 0.463174 16.148 0.381722C16.0188 0.30037 15.8582 0.235812 15.6671 0.187846C15.1598 0.0730584 14.5139 0.0109637 13.729 0.00131011C11.9491 -0.017796 10.8054 0.0971419 10.2981 0.345973C10.0972 0.451107 9.91532 0.594754 9.75272 0.776463C9.58041 0.987082 9.55638 1.10202 9.68077 1.12093C10.2551 1.20695 10.6616 1.41275 10.9009 1.7381L10.9871 1.91051C11.0542 2.0349 11.1212 2.25512 11.1882 2.57088C11.2551 2.88663 11.2983 3.23592 11.3173 3.61854C11.3651 4.31727 11.3651 4.91539 11.3173 5.41295C11.2694 5.91072 11.2241 6.29822 11.1809 6.57576C11.1378 6.8533 11.0732 7.0782 10.9871 7.2504C10.9009 7.42266 10.8435 7.52794 10.8148 7.56616C10.7861 7.60437 10.7621 7.62845 10.7431 7.6379C10.6187 7.68557 10.4894 7.70985 10.3555 7.70985C10.2214 7.70985 10.0588 7.64278 9.86741 7.50874C9.67609 7.37469 9.47754 7.19057 9.27175 6.95607C9.06596 6.72152 8.83387 6.39375 8.57538 5.97271C8.3171 5.55167 8.04911 5.05406 7.77157 4.47987L7.54195 4.06346C7.3984 3.79557 7.20231 3.40551 6.95348 2.89362C6.7045 2.38152 6.48442 1.88617 6.29311 1.40767C6.21664 1.2067 6.10175 1.0537 5.94865 0.948418L5.8768 0.905228C5.82904 0.867016 5.75236 0.826441 5.64718 0.783201C5.54184 0.740011 5.43193 0.709039 5.31699 0.689983L1.38371 0.718542C0.981776 0.718542 0.709062 0.809597 0.565464 0.991457L0.507995 1.07748C0.479286 1.1254 0.464806 1.20193 0.464806 1.30726C0.464806 1.41254 0.493515 1.54176 0.550984 1.69476C1.12517 3.04425 1.74959 4.34573 2.42423 5.59939C3.09888 6.85305 3.68513 7.8629 4.18265 8.62805C4.68026 9.39375 5.18747 10.1164 5.70429 10.7957C6.22111 11.4752 6.56321 11.9107 6.73059 12.102C6.89817 12.2937 7.0298 12.4369 7.12548 12.5326L7.48443 12.8771C7.7141 13.1068 8.05137 13.3819 8.49639 13.7025C8.94152 14.0232 9.4343 14.339 9.975 14.6502C10.5158 14.961 11.1449 15.2146 11.8628 15.4108C12.5805 15.6071 13.2791 15.6859 13.9586 15.6479H15.6095C15.9443 15.619 16.198 15.5137 16.3704 15.332L16.4275 15.26C16.4659 15.2029 16.5018 15.1142 16.535 14.9947C16.5686 14.8751 16.5853 14.7434 16.5853 14.6C16.5755 14.1886 16.6068 13.8178 16.6784 13.4876C16.75 13.1576 16.8315 12.9088 16.9227 12.7412C17.0139 12.5738 17.1168 12.4325 17.2312 12.3179C17.346 12.2031 17.4277 12.1336 17.4757 12.1097C17.5234 12.0856 17.5614 12.0693 17.5901 12.0595C17.8198 11.9829 18.0901 12.057 18.4014 12.2821C18.7125 12.507 19.0043 12.7847 19.2772 13.1148C19.55 13.4451 19.8777 13.8157 20.2604 14.2271C20.6434 14.6387 20.9782 14.9447 21.2652 15.1459L21.5522 15.3182C21.7439 15.4331 21.9927 15.5384 22.299 15.6341C22.6048 15.7297 22.8727 15.7537 23.1027 15.7058L26.7774 15.6485C27.1409 15.6485 27.4237 15.5883 27.6243 15.4689C27.8254 15.3493 27.9448 15.2175 27.9833 15.0742C28.0217 14.9307 28.0238 14.7679 27.9906 14.5859C27.9565 14.4043 27.923 14.2774 27.8896 14.2056Z" fill="#E9D735" fill-opacity="0.7"/>
</svg>
