<svg width="19" height="15" viewBox="0 0 19 15" fill="none" xmlns="http://www.w3.org/2000/svg">
<path d="M1.1875 1.5625C1.1875 1.24756 1.31261 0.94551 1.53531 0.722811C1.75801 0.500111 2.06006 0.375 2.375 0.375H16.625C16.9399 0.375 17.242 0.500111 17.4647 0.722811C17.6874 0.94551 17.8125 1.24756 17.8125 1.5625H1.1875ZM9.5 11.0625C10.1299 11.0625 10.734 10.8123 11.1794 10.3669C11.6248 9.92148 11.875 9.31739 11.875 8.6875C11.875 8.05761 11.6248 7.45352 11.1794 7.00812C10.734 6.56272 10.1299 6.3125 9.5 6.3125C8.87011 6.3125 8.26602 6.56272 7.82062 7.00812C7.37522 7.45352 7.125 8.05761 7.125 8.6875C7.125 9.31739 7.37522 9.92148 7.82062 10.3669C8.26602 10.8123 8.87011 11.0625 9.5 11.0625Z" fill="#E9D735"/>
<path d="M0 3.9375C0 3.62256 0.125111 3.32051 0.347811 3.09781C0.57051 2.87511 0.872555 2.75 1.1875 2.75H17.8125C18.1274 2.75 18.4295 2.87511 18.6522 3.09781C18.8749 3.32051 19 3.62256 19 3.9375V13.4375C19 13.7524 18.8749 14.0545 18.6522 14.2772C18.4295 14.4999 18.1274 14.625 17.8125 14.625H1.1875C0.872555 14.625 0.57051 14.4999 0.347811 14.2772C0.125111 14.0545 0 13.7524 0 13.4375V3.9375ZM3.5625 3.9375C3.5625 4.56739 3.31228 5.17148 2.86688 5.61688C2.42148 6.06228 1.81739 6.3125 1.1875 6.3125V11.0625C1.81739 11.0625 2.42148 11.3127 2.86688 11.7581C3.31228 12.2035 3.5625 12.8076 3.5625 13.4375H15.4375C15.4375 12.8076 15.6877 12.2035 16.1331 11.7581C16.5785 11.3127 17.1826 11.0625 17.8125 11.0625V6.3125C17.1826 6.3125 16.5785 6.06228 16.1331 5.61688C15.6877 5.17148 15.4375 4.56739 15.4375 3.9375H3.5625Z" fill="#E9D735"/>
</svg>
