<?xml version="1.0" standalone="no"?>
<!DOCTYPE svg PUBLIC "-//W3C//DTD SVG 20010904//EN"
 "http://www.w3.org/TR/2001/REC-SVG-20010904/DTD/svg10.dtd">
<svg version="1.0" xmlns="http://www.w3.org/2000/svg"
 width="70.000000pt" height="70.000000pt" viewBox="0 0 70.000000 70.000000"
 preserveAspectRatio="xMidYMid meet">
<metadata>
Created by potrace 1.14, written by Peter Selinger 2001-2017
</metadata>
<g transform="translate(0.000000,70.000000) scale(0.100000,-0.100000)"
fill="#000000" stroke="none">
<path d="M30 544 c0 -4 23 -47 51 -95 l51 -89 -48 -83 c-26 -45 -54 -92 -62
-104 -14 -23 -14 -23 41 -23 l56 0 36 60 c20 33 39 60 43 60 4 -1 24 -28 44
-60 36 -57 39 -60 78 -60 25 0 43 5 46 14 3 7 -18 51 -45 97 -28 46 -51 90
-51 97 0 8 17 44 39 80 70 122 69 112 11 112 -49 0 -50 -1 -82 -50 -18 -27
-36 -50 -39 -50 -4 0 -21 23 -39 50 -31 49 -33 50 -81 50 -27 0 -49 -3 -49 -6z"/>
<path d="M435 538 c-3 -8 -4 -97 -3 -198 l3 -185 125 0 125 0 0 45 0 45 -70 5
-70 5 -5 145 -5 145 -48 3 c-32 2 -49 -1 -52 -10z"/>
</g>
</svg>
